# xmcd
#
# Track frame offsets:
#  150
#  10247
#  28942
#  46740
#  54369
#  67837
#  81832
#  89114
#  102496
#  116279
#  131444
#  141492
#
# Disc length: 2290 seconds
#
# Revision: 0
# Processed by: cddbd v1.5.1PL0 Copyright (c) Steve Scherf et al.
# Submitted via: Collectorz.com Music Collector 6.9
#
DISCID=9f08f00c
DTITLE=Zep'n'Greg - Pipicacavomi
DYEAR=1900
DGENRE=
TTITLE0=Pipi caca vomi
TTITLE1=Super Zweifel
TTITLE2=Les filles à quoi ça sert ?
TTITLE3=C'est le bonheur
TTITLE4=Les couilles à tonton
TTITLE5=Petit bimbo
TTITLE6=Parce que je pensais faire des raviolis
TTITLE7=Viens dans mon slip
TTITLE8=Ma vie est une jungle
TTITLE9=Maman j'ai peur
TTITLE10=Le maréchal Pétain fait de la couture
TTITLE11=Je suis toujours ton amoureux/... L'aventurier
EXTD=
EXTT0=
EXTT1=
EXTT2=
EXTT3=
EXTT4=
EXTT5=
EXTT6=
EXTT7=
EXTT8=
EXTT9=
EXTT10=
EXTT11=
PLAYORDER=
